<?xml version="1.0" standalone="no"?>
<!DOCTYPE svg PUBLIC "-//W3C//DTD SVG 1.1//EN" "http://www.w3.org/Graphics/SVG/1.1/DTD/svg11.dtd">
<svg xmlns="http://www.w3.org/2000/svg" viewBox="0 0 73.77 134.12" width="73.7699966430664" height="134.1199951171875"><defs><style></style></defs><g id="a"/><g id="b"><g id="c"><path  d="M69.36,9.24c0-2.32,.9-7.06,4.41-9.24h-11.66c3.46,2.18,4.41,6.92,4.41,9.24v12.04c0,11.69-11.54,11.51-11.54,11.51h-3.98s-11.54,.17-11.54-11.51v-1.38c0-2.32,.9-7.06,4.41-9.24h-11.66c3.46,2.18,4.41,6.92,4.41,9.24v1.38c0,11.69-11.54,11.51-11.54,11.51h-6.27s-11.54,.17-11.54-11.51V9.24c0-2.32,.9-7.06,4.41-9.24H0C2.73,1.72,3.89,5.03,4.25,7.49V52.46c4.92-1.87,9.16-2.51,13.82-2.71-9.38,4.24-15.78,12.04-15.78,22.3,0,.58,0,1.09,.06,1.67,1.35,19.13,35.88,26.25,50.51,36.78,3.91,2.82,6.93,6.68,6.93,9.76,0,2.63-2.25,4.62-8.15,4.75h-.32c-10.85,0-38.32-9.69-42.17-30.49l-6.68,28.24c7.57,7.06,20.86,11.36,33.7,11.36,17.91,0,35.11-8.28,35.11-28.63s-39.15-26.89-52.38-38.19c-3.27-2.82-4.68-5.39-4.68-7.45,0-3.79,4.49-6.16,10.53-6.16,10.72,0,26.19,7.38,29.97,27.41l16.24-20.8c-5.15-4.81-10.88-8.29-16.77-10.59,5.16,.15,9.69,.75,15.02,2.75l.13-43.22Z"/></g></g></svg>