<?xml version="1.0" standalone="no"?>
<!DOCTYPE svg PUBLIC "-//W3C//DTD SVG 1.1//EN" "http://www.w3.org/Graphics/SVG/1.1/DTD/svg11.dtd">
<svg xmlns="http://www.w3.org/2000/svg" id="Layer_2" viewBox="0 0 440.43 327.12" width="440.42999267578125" height="327.1199951171875"><defs><style>.cls-1{fill:none;stroke:#fff;stroke-linecap:round;stroke-linejoin:round;stroke-width:3px;}</style></defs><g id="Camada_1"><path class="cls-1" d="m369.96,1.5c20.47,13.47,26.07,42.75,26.07,57.09v74.38c0,72.2-68.28,71.13-68.28,71.13h-23.55s-68.28,1.07-68.28-71.13v-8.5c0-14.35,5.33-43.62,26.07-57.09h-68.97c20.47,13.47,26.07,42.75,26.07,57.09v8.5c0,72.2-68.28,71.13-68.28,71.13h-38.14s-68.28,1.07-68.28-71.13V58.59c0-14.35,5.33-43.62,26.07-57.09H1.5c20.47,13.47,26.07,42.75,26.07,57.09v131.91l.13.31v134.8c38.41-15.23,69.81-17.27,109.06-17.27h166.8c39.25,0,70.37,2.34,108.5,17.27V125.31l.79-66.72c0-14.35,5.33-43.62,26.07-57.09h-68.97Z"/></g></svg>