<svg width="2041" height="197" viewBox="0 0 2041 197" fill="none" xmlns="http://www.w3.org/2000/svg">
<path d="M132.443 27.4578L101.138 67.5339C93.8412 28.9217 63.9998 14.7136 43.323 14.7136C31.6845 14.7136 23.0248 19.281 23.0248 26.6001C23.0248 30.5619 25.7514 35.5085 32.0632 40.9596C57.562 62.7387 133.074 76.0892 133.074 114.575C133.074 153.061 99.9003 169.768 65.3631 169.768C40.5963 169.768 14.9964 161.465 0.378697 147.863L13.2544 93.4268C20.6769 133.503 73.6442 152.203 94.5731 152.203H95.2045C106.591 151.951 110.933 148.115 110.933 143.043C110.933 137.112 105.126 129.692 97.5779 124.241C69.3016 103.925 2.72662 90.1967 0.126028 53.3258C-2.20304e-06 52.215 0 51.2308 0 50.0951C0 19.559 29.4626 0.25293 64.1259 0.25293H64.5046C87.2773 0.25293 112.17 8.55562 132.468 27.4832L132.443 27.4578Z" fill="url(#paint0_radial_418_2)"/>
<path d="M229.97 0.12664L286.901 169.769H236.03C226.259 128.809 190.611 114.954 163.749 114.828L152.11 145.996C151.378 148.09 150.999 150.084 150.999 152.179C150.999 158.74 154.584 165.049 158.8 169.743H135.169L191.116 19.6599C188.137 12.3669 185.309 5.80492 182.582 0.101807H229.995L229.97 0.12664ZM166.475 107.762C203.613 108.494 223.406 128.304 233.303 144.759C226.865 111.219 210.025 65.0862 195.559 29.8051L166.475 107.762Z" fill="url(#paint1_radial_418_2)"/>
<path d="M393.239 0.000244141C427.524 0.000244141 448.453 23.5207 448.453 47.3949C448.453 62.4867 440.172 77.7044 421.465 87.2439C410.685 92.0639 394.224 96.7834 379.758 96.7834H378.142C393.113 123.635 431.74 133.023 471.705 133.023C511.67 133.023 549.313 124.493 570.469 114.096L557.341 165.932C543.229 168.531 529.242 169.768 515.76 169.768C440.627 169.768 377.511 133.149 364.761 94.6635C364.635 93.3007 364.635 92.1899 364.635 90.9537C390.134 90.9537 406.089 68.6949 406.089 46.7892C406.089 24.8835 391.27 4.69428 355.748 4.21458V121.616C355.748 139.055 356.733 152.784 363.045 169.743H304.371C310.683 152.784 311.542 139.055 311.542 121.616V47.8746C311.542 30.5618 310.683 16.8079 304.371 0.000244141H393.239ZM526.667 0.000244141L567.516 106.525H516.77C510.585 83.8872 494.124 70.7639 476.048 64.0766L465.52 88.7072C464.661 90.8023 464.157 92.9222 464.157 94.8906C464.157 99.3321 466.252 103.42 469.483 106.525H449.791L461.909 78.1835L479.002 38.1079L488.166 16.5808C485.439 11.5082 482.486 5.93108 479.38 0.000244141H526.667ZM478.774 57.7926C496.346 64.228 507.378 75.2308 514.044 84.7703C508.11 58.1712 501.294 42.0952 492.635 25.262L478.774 57.7926Z" fill="url(#paint2_radial_418_2)"/>
<path d="M635.227 0.125977C629.042 16.9591 628.057 30.6881 628.057 47.8743V102.688C652.697 106.272 665.927 119.016 673.122 131.383C673.122 128.404 673.248 125.326 673.248 121.969V47.8743C673.248 30.6626 672.263 16.9336 665.951 0.125977H724.625C718.313 16.9591 717.454 30.6881 717.454 47.8743V121.995C717.454 139.206 718.313 152.935 724.625 169.742H665.951C668.047 163.181 669.057 157.124 669.057 151.42C669.057 129.641 653.96 115.155 628.082 110.714V121.969C628.082 139.181 629.066 152.909 635.252 169.717H576.706C582.638 153.641 583.875 140.518 583.875 121.969V47.8743C583.875 30.9152 582.638 16.202 576.706 0.125977H635.252H635.227Z" fill="url(#paint3_radial_418_2)"/>
<path d="M939.851 0.125977V49.7416C923.643 22.8899 898.017 6.43537 865.955 6.43537H854.189V95.5209C862.849 83.0287 880.194 66.3222 911.247 66.3222C912.357 66.3222 913.595 66.4482 914.831 66.4482V97.5148C911.499 94.5367 902.814 89.7167 891.201 89.7167C880.799 89.7167 867.924 93.5525 854.189 106.171V163.458H866.939C898.876 163.458 924.627 137.591 939.851 112.228V169.768H802.838C809.276 152.809 810.135 138.954 810.135 121.641V48.0003C810.135 30.6881 809.15 16.9337 802.838 0.125977H939.851Z" fill="url(#paint4_radial_418_2)"/>
<path d="M1008.04 0.125977V163.559H1020.28C1052.73 163.559 1078.83 147.105 1095.04 120.127V169.742H956.664C962.849 152.909 963.96 139.181 963.96 121.868V48.2528C963.96 30.814 962.976 16.9591 956.664 0.125977H1008.04ZM1095.07 0.125977C1088.88 16.4545 1087.89 30.0569 1087.89 46.89V57.5397C1087.89 74.4988 1088.88 87.9752 1095.07 104.43H1036.52C1042.7 87.9752 1043.81 74.4734 1043.81 57.5397V46.89C1043.81 30.0569 1042.7 16.4545 1036.52 0.125977H1095.07Z" fill="url(#paint5_radial_418_2)"/>
<path d="M1249.43 0.125977C1235.56 16.9591 1228.39 30.6881 1220.47 47.8743L1167.85 163.433H1175.53C1207.47 163.433 1233.22 146.979 1249.43 120.127V169.742H1113.65C1127.51 152.909 1134.68 139.307 1142.61 121.995L1195.45 6.43536H1187.52C1155.58 6.43536 1129.83 22.8899 1113.62 49.7416V0.125977H1249.43Z" fill="url(#paint6_radial_418_2)"/>
<path d="M1359.7 0.12664L1416.63 169.769H1365.76C1355.99 128.809 1320.34 114.954 1293.48 114.828L1281.84 145.996C1281.11 148.09 1280.73 150.084 1280.73 152.179C1280.73 158.74 1284.32 165.049 1288.53 169.743H1264.9L1320.85 19.6599C1317.87 12.3669 1315.04 5.80492 1312.31 0.101807H1359.73L1359.7 0.12664ZM1296.21 107.762C1333.34 108.494 1353.14 128.304 1363.03 144.759C1356.6 111.219 1339.76 65.0862 1325.29 29.8051L1296.21 107.762Z" fill="url(#paint7_radial_418_2)"/>
<path d="M1568.14 31.9245C1568.14 52.0889 1549.45 76.2151 1521.23 86.4868C1552.31 87.8496 1571.85 113.818 1571.85 140.317C1571.85 166.815 1550.19 196.241 1497.7 196.494V191.169C1516.63 186.828 1524.43 165.074 1524.43 142.916C1524.43 119.168 1515.52 95.1681 1501.66 91.5594C1497.22 92.1899 1492.5 92.5436 1487.68 92.5436H1485.58V169.137H1434.1C1440.54 152.304 1441.4 138.449 1441.4 121.263V47.6474C1441.4 30.5618 1440.41 16.8334 1434.1 0.126226H1478.79L1519.89 0.000244141C1554.05 0.000244141 1568.16 14.4863 1568.16 31.9245H1568.14ZM1485.58 87.3445H1485.83C1509.72 87.3445 1527.67 62.3601 1527.67 39.6979C1527.67 21.2748 1515.78 4.44171 1485.58 3.8112V87.3445Z" fill="url(#paint8_radial_418_2)"/>
<path d="M1718.78 0.125977V49.7416C1702.57 22.8899 1676.95 6.43537 1644.88 6.43537H1633.12V95.5209C1641.78 83.0287 1659.12 66.3222 1690.17 66.3222C1691.29 66.3222 1692.52 66.4482 1693.76 66.4482V97.5148C1690.43 94.5367 1681.74 89.7167 1670.13 89.7167C1659.73 89.7167 1646.85 93.5525 1633.12 106.171V163.458H1645.87C1677.8 163.458 1703.56 137.591 1718.78 112.228V169.768H1581.77C1588.2 152.809 1589.06 138.954 1589.06 121.641V48.0003C1589.06 30.6881 1588.08 16.9337 1581.77 0.125977H1718.78Z" fill="url(#paint9_radial_418_2)"/>
<path d="M1875.49 0.125977V49.7416C1863.24 29.1987 1846.15 16.076 1827.72 10.2711V121.616C1827.72 138.928 1828.58 152.783 1834.89 169.742H1776.22C1782.53 152.783 1783.51 138.928 1783.51 121.616V10.2711C1765.06 16.076 1747.87 29.1987 1735.62 49.7416V0.125977H1875.49Z" fill="url(#paint10_radial_418_2)"/>
<path d="M1951.6 0.125977C1945.42 16.9591 1944.43 30.6881 1944.43 47.8743V102.688C1969.07 106.272 1982.3 119.016 1989.5 131.383C1989.5 128.404 1989.62 125.326 1989.62 121.969V47.8743C1989.62 30.6626 1988.64 16.9336 1982.33 0.125977H2041C2034.69 16.9591 2033.83 30.6881 2033.83 47.8743V121.995C2033.83 139.206 2034.69 152.935 2041 169.742H1982.33C1984.42 163.181 1985.43 157.124 1985.43 151.42C1985.43 129.641 1970.34 115.155 1944.46 110.714V121.969C1944.46 139.181 1945.44 152.909 1951.63 169.717H1893.08C1899.01 153.641 1900.25 140.518 1900.25 121.969V47.8743C1900.25 30.9152 1899.01 16.202 1893.08 0.125977H1951.63H1951.6Z" fill="url(#paint11_radial_418_2)"/>
<defs>
<radialGradient id="paint0_radial_418_2" cx="0" cy="0" r="1" gradientUnits="userSpaceOnUse" gradientTransform="translate(-19.8213 155.636) scale(2011.97 2011.2)">
<stop stop-color="#BF96C2"/>
<stop offset="0.35" stop-color="#75447F"/>
<stop offset="0.7" stop-color="#FE5862"/>
<stop offset="0.87" stop-color="#FB6364"/>
<stop offset="0.94" stop-color="#F57969"/>
<stop offset="1" stop-color="#F08F6D"/>
</radialGradient>
<radialGradient id="paint1_radial_418_2" cx="0" cy="0" r="1" gradientUnits="userSpaceOnUse" gradientTransform="translate(-19.8214 155.636) scale(2011.97 2011.2)">
<stop stop-color="#BF96C2"/>
<stop offset="0.35" stop-color="#75447F"/>
<stop offset="0.7" stop-color="#FE5862"/>
<stop offset="0.87" stop-color="#FB6364"/>
<stop offset="0.94" stop-color="#F57969"/>
<stop offset="1" stop-color="#F08F6D"/>
</radialGradient>
<radialGradient id="paint2_radial_418_2" cx="0" cy="0" r="1" gradientUnits="userSpaceOnUse" gradientTransform="translate(-19.8216 155.636) scale(2011.97 2011.2)">
<stop stop-color="#BF96C2"/>
<stop offset="0.35" stop-color="#75447F"/>
<stop offset="0.7" stop-color="#FE5862"/>
<stop offset="0.87" stop-color="#FB6364"/>
<stop offset="0.94" stop-color="#F57969"/>
<stop offset="1" stop-color="#F08F6D"/>
</radialGradient>
<radialGradient id="paint3_radial_418_2" cx="0" cy="0" r="1" gradientUnits="userSpaceOnUse" gradientTransform="translate(-19.8215 155.635) scale(2011.97 2011.2)">
<stop stop-color="#BF96C2"/>
<stop offset="0.35" stop-color="#75447F"/>
<stop offset="0.7" stop-color="#FE5862"/>
<stop offset="0.87" stop-color="#FB6364"/>
<stop offset="0.94" stop-color="#F57969"/>
<stop offset="1" stop-color="#F08F6D"/>
</radialGradient>
<radialGradient id="paint4_radial_418_2" cx="0" cy="0" r="1" gradientUnits="userSpaceOnUse" gradientTransform="translate(-19.8214 155.635) scale(2011.97 2011.2)">
<stop stop-color="#BF96C2"/>
<stop offset="0.35" stop-color="#75447F"/>
<stop offset="0.7" stop-color="#FE5862"/>
<stop offset="0.87" stop-color="#FB6364"/>
<stop offset="0.94" stop-color="#F57969"/>
<stop offset="1" stop-color="#F08F6D"/>
</radialGradient>
<radialGradient id="paint5_radial_418_2" cx="0" cy="0" r="1" gradientUnits="userSpaceOnUse" gradientTransform="translate(-19.821 155.635) scale(2011.97 2011.2)">
<stop stop-color="#BF96C2"/>
<stop offset="0.35" stop-color="#75447F"/>
<stop offset="0.7" stop-color="#FE5862"/>
<stop offset="0.87" stop-color="#FB6364"/>
<stop offset="0.94" stop-color="#F57969"/>
<stop offset="1" stop-color="#F08F6D"/>
</radialGradient>
<radialGradient id="paint6_radial_418_2" cx="0" cy="0" r="1" gradientUnits="userSpaceOnUse" gradientTransform="translate(-19.8209 155.635) scale(2011.97 2011.2)">
<stop stop-color="#BF96C2"/>
<stop offset="0.35" stop-color="#75447F"/>
<stop offset="0.7" stop-color="#FE5862"/>
<stop offset="0.87" stop-color="#FB6364"/>
<stop offset="0.94" stop-color="#F57969"/>
<stop offset="1" stop-color="#F08F6D"/>
</radialGradient>
<radialGradient id="paint7_radial_418_2" cx="0" cy="0" r="1" gradientUnits="userSpaceOnUse" gradientTransform="translate(-19.8216 155.636) scale(2011.97 2011.2)">
<stop stop-color="#BF96C2"/>
<stop offset="0.35" stop-color="#75447F"/>
<stop offset="0.7" stop-color="#FE5862"/>
<stop offset="0.87" stop-color="#FB6364"/>
<stop offset="0.94" stop-color="#F57969"/>
<stop offset="1" stop-color="#F08F6D"/>
</radialGradient>
<radialGradient id="paint8_radial_418_2" cx="0" cy="0" r="1" gradientUnits="userSpaceOnUse" gradientTransform="translate(-176.046 180.125) scale(2022.72 2329.54)">
<stop stop-color="#BF96C2"/>
<stop offset="0.35" stop-color="#75447F"/>
<stop offset="0.7" stop-color="#FE5862"/>
<stop offset="0.87" stop-color="#FB6364"/>
<stop offset="0.94" stop-color="#F57969"/>
<stop offset="1" stop-color="#F08F6D"/>
</radialGradient>
<radialGradient id="paint9_radial_418_2" cx="0" cy="0" r="1" gradientUnits="userSpaceOnUse" gradientTransform="translate(-19.8211 155.635) scale(2011.97 2011.2)">
<stop stop-color="#BF96C2"/>
<stop offset="0.35" stop-color="#75447F"/>
<stop offset="0.7" stop-color="#FE5862"/>
<stop offset="0.87" stop-color="#FB6364"/>
<stop offset="0.94" stop-color="#F57969"/>
<stop offset="1" stop-color="#F08F6D"/>
</radialGradient>
<radialGradient id="paint10_radial_418_2" cx="0" cy="0" r="1" gradientUnits="userSpaceOnUse" gradientTransform="translate(-19.8219 155.635) scale(2011.97 2011.2)">
<stop stop-color="#BF96C2"/>
<stop offset="0.35" stop-color="#75447F"/>
<stop offset="0.7" stop-color="#FE5862"/>
<stop offset="0.87" stop-color="#FB6364"/>
<stop offset="0.94" stop-color="#F57969"/>
<stop offset="1" stop-color="#F08F6D"/>
</radialGradient>
<radialGradient id="paint11_radial_418_2" cx="0" cy="0" r="1" gradientUnits="userSpaceOnUse" gradientTransform="translate(-19.8218 155.635) scale(2011.97 2011.2)">
<stop stop-color="#BF96C2"/>
<stop offset="0.35" stop-color="#75447F"/>
<stop offset="0.7" stop-color="#FE5862"/>
<stop offset="0.87" stop-color="#FB6364"/>
<stop offset="0.94" stop-color="#F57969"/>
<stop offset="1" stop-color="#F08F6D"/>
</radialGradient>
</defs>
</svg>
